# xmcd
#
# Track frame offsets:
# 150
# 19657
# 39238
# 58777
# 74582
# 93515
# 104674
# 123474
# 136876
# 150253
#
# Disc length: 2227 seconds
#
#
# Revision: 0
# Processed by: cddbd v1.5.2PL0 Copyright (c) Steve Scherf et al.
# Submitted via: FreeRIP 2.91 
#
DISCID=8308b10a
DTITLE=Allen Brown  - Natural Disaster
DYEAR=2010
DGENRE=Country
TTITLE0=Live Like Hank
TTITLE1=Jack On My Breath
TTITLE2=Beerheimers
TTITLE3=With Me in My Mind
TTITLE4=Natural Disaster
TTITLE5=Best Thing That Happened To Me
TTITLE6=Down Home Dixie Dust
TTITLE7=Hugs And Kisses
TTITLE8=All About Love
TTITLE9=One More Day To Live
EXTD=Mastered Version
EXTT0=
EXTT1=
EXTT2=
EXTT3=
EXTT4=
EXTT5=
EXTT6=
EXTT7=
EXTT8=
EXTT9=
PLAYORDER=
